<svg width="44" height="40" viewBox="0 0 44 40" fill="none" xmlns="http://www.w3.org/2000/svg">
<g clip-path="url(#clip0_1_173)">
<path d="M43.7681 29.2C43.7151 29.0956 43.6657 29.009 43.6198 28.9396C42.8608 27.6897 41.4102 26.1555 39.2691 24.3366L39.2238 24.295L39.2012 24.2746L39.1783 24.2536H39.1553C38.1835 23.4067 37.5682 22.8372 37.3105 22.5456C36.8389 21.9902 36.7333 21.428 36.991 20.8584C37.1731 20.428 37.857 19.5191 39.0411 18.1305C39.664 17.3945 40.1573 16.8047 40.5216 16.3603C43.149 13.1668 44.288 11.1261 43.9386 10.2374L43.8029 10.0297C43.7117 9.90467 43.4763 9.7903 43.0971 9.68598C42.717 9.58189 42.2312 9.56468 41.6388 9.63405L35.0787 9.67548C34.9724 9.64105 34.8207 9.64426 34.623 9.68598C34.4255 9.72771 34.3267 9.74864 34.3267 9.74864L34.2125 9.8008L34.1219 9.86346C34.046 9.90489 33.9624 9.97776 33.8712 10.0819C33.7805 10.1857 33.7046 10.3075 33.644 10.4464C32.9298 12.1264 32.1177 13.6883 31.2064 15.1322C30.6445 15.9932 30.1284 16.7393 29.6571 17.3711C29.1865 18.0027 28.7916 18.468 28.473 18.7663C28.1539 19.0648 27.8658 19.304 27.6072 19.4847C27.3489 19.6655 27.1518 19.7418 27.0153 19.7139C26.8784 19.6859 26.7496 19.6582 26.6276 19.6305C26.4151 19.5055 26.2442 19.3354 26.1154 19.1203C25.986 18.9051 25.8988 18.6342 25.8533 18.3079C25.808 17.9814 25.7812 17.7006 25.7735 17.4645C25.7664 17.2286 25.7697 16.8951 25.7851 16.4647C25.8009 16.0341 25.808 15.7428 25.808 15.59C25.808 15.0623 25.8192 14.4896 25.8418 13.8718C25.8648 13.2539 25.8834 12.7644 25.8989 12.4038C25.9144 12.0428 25.9216 11.6608 25.9216 11.2582C25.9216 10.8555 25.8948 10.5397 25.8418 10.3105C25.7895 10.0816 25.7091 9.85945 25.6033 9.64404C25.4967 9.42885 25.3408 9.26239 25.1363 9.14422C24.9313 9.0262 24.6765 8.93253 24.3732 8.86294C23.5683 8.69641 22.5433 8.60632 21.2978 8.59232C18.4734 8.5646 16.6585 8.73135 15.8537 9.09236C15.5348 9.24488 15.2462 9.45329 14.9882 9.71691C14.7148 10.0225 14.6766 10.1892 14.874 10.2167C15.7853 10.3415 16.4304 10.64 16.8101 11.1121L16.947 11.3622C17.0534 11.5427 17.1597 11.8622 17.266 12.3202C17.3722 12.7783 17.4407 13.2851 17.4709 13.8402C17.5467 14.8539 17.5467 15.7217 17.4709 16.4435C17.3949 17.1657 17.3231 17.7279 17.2545 18.1305C17.186 18.5332 17.0836 18.8595 16.947 19.1093C16.8101 19.3592 16.7191 19.512 16.6735 19.5674C16.6279 19.6229 16.5899 19.6578 16.5598 19.6715C16.3624 19.7407 16.1571 19.7759 15.9446 19.7759C15.7319 19.7759 15.4738 19.6786 15.1702 19.4841C14.8666 19.2896 14.5515 19.0225 14.225 18.6823C13.8984 18.342 13.5301 17.8665 13.12 17.2556C12.7101 16.6448 12.2849 15.9229 11.8445 15.0898L11.4801 14.4857C11.2523 14.097 10.9412 13.5311 10.5463 12.7885C10.1512 12.0455 9.80202 11.3269 9.49844 10.6327C9.37709 10.3411 9.19479 10.1191 8.95184 9.96639L8.83783 9.90372C8.76204 9.84829 8.64037 9.78942 8.47346 9.72669C8.30631 9.66403 8.13191 9.61909 7.94952 9.59145L1.70813 9.63288C1.07034 9.63288 0.637589 9.76498 0.409727 10.0288L0.318534 10.1536C0.272978 10.2232 0.25 10.3342 0.25 10.487C0.25 10.6397 0.295556 10.8272 0.386749 11.0492C1.29788 13.007 2.28871 14.8952 3.35925 16.714C4.42979 18.5328 5.36006 19.9979 6.14952 21.108C6.93914 22.2189 7.744 23.2673 8.5641 24.2528C9.38419 25.2387 9.92704 25.8704 10.1926 26.148C10.4586 26.4261 10.6674 26.634 10.8193 26.7728L11.3888 27.2725C11.7533 27.6058 12.2885 28.005 12.9946 28.47C13.701 28.9353 14.4829 29.3934 15.3409 29.845C16.1991 30.2959 17.1974 30.6638 18.3365 30.9484C19.4754 31.2332 20.5839 31.3475 21.6622 31.2924H24.2818C24.8131 31.2504 25.2156 31.0977 25.4892 30.8341L25.5798 30.7297C25.6407 30.6468 25.6978 30.5181 25.7505 30.3448C25.8037 30.1713 25.8302 29.9801 25.8302 29.7721C25.8147 29.1752 25.8644 28.6373 25.978 28.1583C26.0915 27.6795 26.2209 27.3185 26.3657 27.0754C26.5103 26.8324 26.6735 26.6275 26.8552 26.4613C27.0373 26.2948 27.167 26.1939 27.2431 26.1592C27.3188 26.1242 27.3792 26.1005 27.4247 26.0863C27.7892 25.9753 28.2181 26.0828 28.7121 26.4094C29.2057 26.7356 29.6687 27.1385 30.1018 27.6173C30.5346 28.0966 31.0546 28.6343 31.6619 29.2312C32.2697 29.8283 32.801 30.2722 33.2564 30.5642L33.7118 30.8141C34.016 30.9808 34.4108 31.1336 34.8969 31.2724C35.382 31.4111 35.8071 31.4459 36.1721 31.3765L42.0033 31.2933C42.58 31.2933 43.0288 31.206 43.3471 31.0328C43.6661 30.8592 43.8556 30.668 43.9167 30.4601C43.9777 30.2519 43.9809 30.0157 43.9283 29.7516C43.8743 29.4882 43.821 29.304 43.7681 29.2Z" fill="white"/>
</g>
<defs>
<clipPath id="clip0_1_173">
<rect width="43.75" height="40" fill="white" transform="translate(0.25)"/>
</clipPath>
</defs>
</svg>
